<svg width="674.7312499999999px" height="122px" xmlns="http://www.w3.org/2000/svg" viewBox="-87.36562499999997 14 674.7312499999999 122" style="background: rgba(0, 0, 0, 0);" preserveAspectRatio="xMidYMid"><defs><linearGradient id="editing-sticker-gradient" x1="0.5" y1="0.2" x2="0.5" y2="0.8"><stop offset="0" stop-color="#fd9"></stop><stop offset="1" stop-color="#9df"></stop></linearGradient><filter id="editing-sticker" x="-100%" y="-100%" width="300%" height="300%"><feMorphology operator="erode" radius="1" in="SourceAlpha" result="alpha-erode"></feMorphology><feConvolveMatrix order="3,3" divisor="1" kernelMatrix="0 1 0 1 1 1 0 1 0" in="alpha-erode" result="alpha-round"></feConvolveMatrix><feMorphology operator="dilate" radius="3.5" in="alpha-round" result="dilate-shadow"></feMorphology><feGaussianBlur in="dilate-shadow" stdDeviation="1.5" result="shadow"></feGaussianBlur><feFlood flood-color="#fff" result="flood-sticker"></feFlood><feComposite operator="in" in="flood-sticker" in2="alpha-round" result="comp-sticker"></feComposite><feMorphology operator="dilate" radius="3" in="comp-sticker" result="morph-sticker"></feMorphology><feConvolveMatrix order="3,3" divisor="1" kernelMatrix="0 1 0 1 1 1 0 1 0" in="morph-sticker" result="sticker"></feConvolveMatrix><feMerge><feMergeNode in="shadow"></feMergeNode><feMergeNode in="sticker"></feMergeNode><feMergeNode in="SourceGraphic"></feMergeNode></feMerge></filter></defs><g filter="url(#editing-sticker)"><g transform="translate(10.224981397390366, 99)"><path d="M24.96-4.80L24.96-4.80L24.96-4.80Q24.96-9.28 26.75-18.24L26.75-18.24L17.28-18.24L13.76 0L0.38 0L8.51-42.24L22.02-42.24L18.30-23.36L27.78-23.36L31.30-42.24L44.80-42.24L44.80-42.24Q43.90-37.50 42.75-32.19L42.75-32.19L40.58-21.76L40.58-21.76Q38.14-9.60 38.14-4.29L38.14-4.29L38.14-4.29Q38.14-2.11 38.85-0.90L38.85-0.90L38.85-0.90Q35.65 1.28 31.90 1.28L31.90 1.28L31.90 1.28Q28.16 1.28 26.56-0.51L26.56-0.51L26.56-0.51Q24.96-2.30 24.96-4.80ZM61.70-3.52L61.70-3.52L61.70-3.52Q59.71 1.28 53.38 1.28L53.38 1.28L53.38 1.28Q50.11 1.28 48.06-0.96L48.06-0.96L48.06-0.96Q46.34-2.94 46.34-4.93L46.34-4.93L46.34-4.93Q46.34-10.11 48.70-20.22L48.70-20.22L51.07-32.64L64.06-33.92L60.16-13.70L60.16-13.70Q59.07-8.96 59.07-7.30L59.07-7.30L59.07-7.30Q59.07-3.65 61.70-3.52ZM52.22-41.54L52.22-41.54L52.22-41.54Q52.22-44.03 54.30-45.38L54.30-45.38L54.30-45.38Q56.38-46.72 59.39-46.72L59.39-46.72L59.39-46.72Q62.40-46.72 64.22-45.38L64.22-45.38L64.22-45.38Q66.05-44.03 66.05-41.54L66.05-41.54L66.05-41.54Q66.05-39.04 64.03-37.76L64.03-37.76L64.03-37.76Q62.02-36.48 59.01-36.48L59.01-36.48L59.01-36.48Q56-36.48 54.11-37.76L54.11-37.76L54.11-37.76Q52.22-39.04 52.22-41.54ZM86.27-22.46L86.27-22.46L86.27-22.46Q87.17-24.83 87.17-26.88L87.17-26.88L87.17-26.88Q87.17-30.66 84.10-30.66L84.10-30.66L84.10-30.66Q82.50-30.66 81.18-29.22L81.18-29.22L81.18-29.22Q79.87-27.78 79.87-25.98L79.87-25.98L79.87-25.98Q79.87-24.70 80.90-23.68L80.90-23.68L80.90-23.68Q82.37-22.27 86.14-19.97L86.14-19.97L86.14-19.97Q89.92-17.66 91.36-15.78L91.36-15.78L91.36-15.78Q92.80-13.89 92.80-11.30L92.80-11.30L92.80-11.30Q92.80-8.70 91.55-6.34L91.55-6.34L91.55-6.34Q90.30-3.97 88.06-2.30L88.06-2.30L88.06-2.30Q83.26 1.28 75.58 1.28L75.58 1.28L75.58 1.28Q71.42 1.28 68.22-0.90L68.22-0.90L68.22-0.90Q65.02-3.01 65.02-5.50L65.02-5.50L65.02-5.50Q65.02-8 66.85-9.47L66.85-9.47L66.85-9.47Q68.67-10.94 71.36-10.94L71.36-10.94L71.36-10.94Q74.05-10.94 75.71-9.92L75.71-9.92L75.71-9.92Q74.88-7.81 74.88-6.40L74.88-6.40L74.88-6.40Q74.88-2.18 78.46-2.18L78.46-2.18L78.46-2.18Q80-2.18 81.02-3.14L81.02-3.14L81.02-3.14Q82.05-4.10 82.05-5.76L82.05-5.76L82.05-5.76Q82.05-9.02 76.54-12.48L76.54-12.48L76.54-12.48Q72.06-15.42 71.04-16.58L71.04-16.58L71.04-16.58Q69.31-18.62 69.31-21.18L69.31-21.18L69.31-21.18Q69.31-23.74 70.53-26.18L70.53-26.18L70.53-26.18Q71.74-28.61 73.98-30.34L73.98-30.34L73.98-30.34Q78.66-33.92 86.78-33.92L86.78-33.92L86.78-33.92Q90.94-33.92 93.41-32.26L93.41-32.26L93.41-32.26Q95.87-30.59 95.87-27.78L95.87-27.78L95.87-27.78Q95.87-24.96 94.18-23.36L94.18-23.36L94.18-23.36Q92.48-21.76 89.41-21.76L89.41-21.76L89.41-21.76Q87.30-21.76 86.27-22.46ZM99.26-6.40L99.26-6.40L99.26-6.40Q99.26-8.13 100.16-12.48L100.16-12.48L103.55-29.76L99.78-29.76L100.03-31.68L100.03-31.68Q107.71-33.98 115.14-39.62L115.14-39.62L118.21-39.62L116.67-32.64L121.66-32.64L121.09-29.76L116.16-29.76L112.90-12.48L112.90-12.48Q112.06-8.51 112.06-7.17L112.06-7.17L112.06-7.17Q112.06-4.10 114.75-3.46L114.75-3.46L114.75-3.46Q114.11-1.28 111.81 0L111.81 0L111.81 0Q109.50 1.28 106.24 1.28L106.24 1.28L106.24 1.28Q102.98 1.28 101.12-0.77L101.12-0.77L101.12-0.77Q99.26-2.82 99.26-6.40ZM135.04 1.28L135.04 1.28L135.04 1.28Q120.96 1.28 120.96-11.97L120.96-11.97L120.96-11.97Q120.96-21.38 126.14-27.46L126.14-27.46L126.14-27.46Q131.65-33.92 141.18-33.92L141.18-33.92L141.18-33.92Q148.10-33.92 151.62-30.72L151.62-30.72L151.62-30.72Q155.14-27.52 155.14-20.80L155.14-20.80L155.14-20.80Q155.14-10.56 149.63-4.61L149.63-4.61L149.63-4.61Q144.26 1.28 135.04 1.28ZM136.70-26.56L136.70-26.56L136.70-26.56Q135.94-24.83 135.33-22.24L135.33-22.24L135.33-22.24Q134.72-19.65 133.95-15.55L133.95-15.55L133.95-15.55Q133.18-11.46 133.18-6.40L133.18-6.40L133.18-6.40Q133.18-4.74 133.73-3.65L133.73-3.65L133.73-3.65Q134.27-2.56 135.74-2.56L135.74-2.56L135.74-2.56Q137.22-2.56 138.14-3.26L138.14-3.26L138.14-3.26Q139.07-3.97 139.78-5.63L139.78-5.63L139.78-5.63Q141.06-8.58 142.08-14.05L142.08-14.05L142.08-14.05Q143.10-19.52 143.20-21.89L143.20-21.89L143.20-21.89Q143.30-24.26 143.30-26.02L143.30-26.02L143.30-26.02Q143.30-27.78 142.78-28.93L142.78-28.93L142.78-28.93Q142.27-30.08 140.83-30.08L140.83-30.08L140.83-30.08Q139.39-30.08 138.43-29.18L138.43-29.18L138.43-29.18Q137.47-28.29 136.70-26.56ZM178.94-17.98L178.94-17.98L178.94-17.98Q181.25-22.08 181.25-26.24L181.25-26.24L181.25-26.24Q181.25-28.99 179.26-28.99L179.26-28.99L179.26-28.99Q177.73-28.99 176.13-26.37L176.13-26.37L176.13-26.37Q174.46-23.74 173.95-20.35L173.95-20.35L170.62 0L157.38 1.28L163.90-32.64L174.46-33.92L173.31-27.46L173.31-27.46Q176.45-33.92 183.49-33.92L183.49-33.92L183.49-33.92Q187.20-33.92 189.22-32L189.22-32L189.22-32Q191.23-30.08 191.23-26.14L191.23-26.14L191.23-26.14Q191.23-22.21 188.64-19.71L188.64-19.71L188.64-19.71Q186.05-17.22 181.63-17.22L181.63-17.22L181.63-17.22Q179.71-17.22 178.94-17.98ZM207.62-3.52L207.62-3.52L207.62-3.52Q205.63 1.28 199.30 1.28L199.30 1.28L199.30 1.28Q196.03 1.28 193.98-0.96L193.98-0.96L193.98-0.96Q192.26-2.94 192.26-4.93L192.26-4.93L192.26-4.93Q192.26-10.11 194.62-20.22L194.62-20.22L196.99-32.64L209.98-33.92L206.08-13.70L206.08-13.70Q204.99-8.96 204.99-7.30L204.99-7.30L204.99-7.30Q204.99-3.65 207.62-3.52ZM198.14-41.54L198.14-41.54L198.14-41.54Q198.14-44.03 200.22-45.38L200.22-45.38L200.22-45.38Q202.30-46.72 205.31-46.72L205.31-46.72L205.31-46.72Q208.32-46.72 210.14-45.38L210.14-45.38L210.14-45.38Q211.97-44.03 211.97-41.54L211.97-41.54L211.97-41.54Q211.97-39.04 209.95-37.76L209.95-37.76L209.95-37.76Q207.94-36.48 204.93-36.48L204.93-36.48L204.93-36.48Q201.92-36.48 200.03-37.76L200.03-37.76L200.03-37.76Q198.14-39.04 198.14-41.54ZM215.84-1.92L215.84-1.92L215.84-1.92Q214.34-3.58 213.66-6.21L213.66-6.21L213.66-6.21Q212.99-8.83 212.99-13.12L212.99-13.12L212.99-13.12Q212.99-17.41 214.46-21.31L214.46-21.31L214.46-21.31Q215.94-25.22 218.62-28.03L218.62-28.03L218.62-28.03Q224.13-33.92 233.22-33.92L233.22-33.92L233.22-33.92Q236.48-33.92 238.85-32.83L238.85-32.83L249.79-33.92L245.06-8.96L245.06-8.96Q244.86-8.19 244.86-6.78L244.86-6.78L244.86-6.78Q244.86-5.38 245.73-4.48L245.73-4.48L245.73-4.48Q246.59-3.58 247.87-3.46L247.87-3.46L247.87-3.46Q247.23-1.28 244.90 0L244.90 0L244.90 0Q242.56 1.28 239.94 1.28L239.94 1.28L239.94 1.28Q237.31 1.28 235.55 0.29L235.55 0.29L235.55 0.29Q233.79-0.70 233.28-2.37L233.28-2.37L233.28-2.37Q232.26-0.77 230.08 0.26L230.08 0.26L230.08 0.26Q227.90 1.28 224.99 1.28L224.99 1.28L224.99 1.28Q222.08 1.28 219.71 0.51L219.71 0.51L219.71 0.51Q217.34-0.26 215.84-1.92ZM229.34-27.90L229.34-27.90L229.34-27.90Q228.61-26.75 227.97-24.80L227.97-24.80L227.97-24.80Q227.33-22.85 226.27-17.63L226.27-17.63L226.27-17.63Q225.22-12.42 225.22-8.70L225.22-8.70L225.22-8.70Q225.22-4.99 225.79-3.90L225.79-3.90L225.79-3.90Q226.37-2.82 227.39-2.82L227.39-2.82L227.39-2.82Q229.44-2.82 230.94-4.77L230.94-4.77L230.94-4.77Q232.45-6.72 233.02-10.18L233.02-10.18L236.42-28.93L236.42-28.93Q235.07-30.08 233.50-30.08L233.50-30.08L233.50-30.08Q231.94-30.08 231.01-29.57L231.01-29.57L231.01-29.57Q230.08-29.06 229.34-27.90ZM299.84-13.25L299.84-13.25L299.84-13.25Q301.50-12.03 301.50-9.44L301.50-9.44L301.50-9.44Q301.50-6.85 300.38-5.02L300.38-5.02L300.38-5.02Q299.26-3.20 297.09-1.79L297.09-1.79L297.09-1.79Q292.42 1.22 284.26 1.22L284.26 1.22L284.26 1.22Q276.10 1.22 271.65-3.04L271.65-3.04L271.65-3.04Q267.20-7.30 267.20-14.85L267.20-14.85L267.20-14.85Q267.20-25.54 272.77-33.66L272.77-33.66L272.77-33.66Q276.99-39.68 284.54-42.24L284.54-42.24L284.54-42.24Q288.45-43.52 292.29-43.52L292.29-43.52L292.29-43.52Q296.13-43.52 298.50-43.01L298.50-43.01L298.50-43.01Q300.86-42.50 302.66-41.47L302.66-41.47L302.66-41.47Q306.56-39.23 306.56-35.65L306.56-35.65L306.56-35.65Q306.56-32.38 303.49-29.95L303.49-29.95L303.49-29.95Q300.67-27.78 298.37-27.78L298.37-27.78L298.37-27.78Q296.06-27.78 295.10-28.10L295.10-28.10L295.10-28.10Q295.36-30.40 295.36-31.90L295.36-31.90L295.36-31.90Q295.36-33.41 295.30-34.50L295.30-34.50L295.30-34.50Q295.23-35.58 294.91-36.61L294.91-36.61L294.91-36.61Q294.27-38.98 292.32-38.98L292.32-38.98L292.32-38.98Q290.37-38.98 288.42-37.15L288.42-37.15L288.42-37.15Q286.46-35.33 284.80-32.26L284.80-32.26L284.80-32.26Q281.02-25.28 281.02-17.02L281.02-17.02L281.02-17.02Q281.02-13.06 283.26-10.78L283.26-10.78L283.26-10.78Q285.50-8.51 290.30-8.51L290.30-8.51L290.30-8.51Q293.89-8.51 297.28-10.88L297.28-10.88L297.28-10.88Q298.75-11.90 299.84-13.25ZM322.11-3.52L322.11-3.52L322.11-3.52Q320.13 1.28 313.79 1.28L313.79 1.28L313.79 1.28Q310.59 1.28 308.54-0.96L308.54-0.96L308.54-0.96Q306.88-2.82 306.88-4.93L306.88-4.93L306.88-4.93Q306.88-9.73 309.12-20.22L309.12-20.22L313.79-44.80L326.78-46.08L320.58-13.70L320.58-13.70Q319.49-8.96 319.49-7.30L319.49-7.30L319.49-7.30Q319.49-3.65 322.11-3.52ZM342.91-3.52L342.91-3.52L342.91-3.52Q340.93 1.28 334.59 1.28L334.59 1.28L334.59 1.28Q331.33 1.28 329.28-0.96L329.28-0.96L329.28-0.96Q327.55-2.94 327.55-4.93L327.55-4.93L327.55-4.93Q327.55-10.11 329.92-20.22L329.92-20.22L332.29-32.64L345.28-33.92L341.38-13.70L341.38-13.70Q340.29-8.96 340.29-7.30L340.29-7.30L340.29-7.30Q340.29-3.65 342.91-3.52ZM333.44-41.54L333.44-41.54L333.44-41.54Q333.44-44.03 335.52-45.38L335.52-45.38L335.52-45.38Q337.60-46.72 340.61-46.72L340.61-46.72L340.61-46.72Q343.62-46.72 345.44-45.38L345.44-45.38L345.44-45.38Q347.26-44.03 347.26-41.54L347.26-41.54L347.26-41.54Q347.26-39.04 345.25-37.76L345.25-37.76L345.25-37.76Q343.23-36.48 340.22-36.48L340.22-36.48L340.22-36.48Q337.22-36.48 335.33-37.76L335.33-37.76L335.33-37.76Q333.44-39.04 333.44-41.54ZM375.42 1.28L375.42 1.28L375.42 1.28Q367.68 1.28 367.68-4.74L367.68-4.74L367.68-4.74Q367.74-6.40 368.26-9.22L368.26-9.22L369.41-15.10L369.41-15.10Q371.14-23.42 371.14-25.28L371.14-25.28L371.14-25.28Q371.14-28.99 368.96-28.99L368.96-28.99L368.96-28.99Q365.31-28.99 363.39-19.46L363.39-19.46L359.62 0L346.75 1.28L353.41-32.70L363.90-33.92L362.88-27.65L362.88-27.65Q365.89-33.92 375.10-33.92L375.10-33.92L375.10-33.92Q379.58-33.92 381.47-32.03L381.47-32.03L381.47-32.03Q383.36-30.14 383.36-25.92L383.36-25.92L383.36-25.92Q383.36-21.95 381.31-12.67L381.31-12.67L381.31-12.67Q380.35-8.51 380.35-6.94L380.35-6.94L380.35-6.94Q380.35-5.38 381.22-4.48L381.22-4.48L381.22-4.48Q382.08-3.58 383.36-3.46L383.36-3.46L383.36-3.46Q382.72-1.28 380.51 0L380.51 0L380.51 0Q378.30 1.28 375.42 1.28ZM403.84-3.52L403.84-3.52L403.84-3.52Q401.86 1.28 395.52 1.28L395.52 1.28L395.52 1.28Q392.26 1.28 390.21-0.96L390.21-0.96L390.21-0.96Q388.48-2.94 388.48-4.93L388.48-4.93L388.48-4.93Q388.48-10.11 390.85-20.22L390.85-20.22L393.22-32.64L406.21-33.92L402.30-13.70L402.30-13.70Q401.22-8.96 401.22-7.30L401.22-7.30L401.22-7.30Q401.22-3.65 403.84-3.52ZM394.37-41.54L394.37-41.54L394.37-41.54Q394.37-44.03 396.45-45.38L396.45-45.38L396.45-45.38Q398.53-46.72 401.54-46.72L401.54-46.72L401.54-46.72Q404.54-46.72 406.37-45.38L406.37-45.38L406.37-45.38Q408.19-44.03 408.19-41.54L408.19-41.54L408.19-41.54Q408.19-39.04 406.18-37.76L406.18-37.76L406.18-37.76Q404.16-36.48 401.15-36.48L401.15-36.48L401.15-36.48Q398.14-36.48 396.26-37.76L396.26-37.76L396.26-37.76Q394.37-39.04 394.37-41.54ZM440.70-26.62L440.70-26.62L440.70-26.62Q440.70-23.94 438.46-22.27L438.46-22.27L438.46-22.27Q436.22-20.61 432.58-20.61L432.58-20.61L432.58-20.61Q431.04-20.61 430.14-21.06L430.14-21.06L430.14-21.06Q430.85-22.72 431.07-24.80L431.07-24.80L431.07-24.80Q431.30-26.88 431.30-27.46L431.30-27.46L431.30-27.46Q431.30-30.14 429.44-30.14L429.44-30.14L429.44-30.14Q428.16-30.14 426.72-28.54L426.72-28.54L426.72-28.54Q425.28-26.94 424.06-24.45L424.06-24.45L424.06-24.45Q421.38-18.69 421.38-12.86L421.38-12.86L421.38-12.86Q421.38-9.66 422.59-8.22L422.59-8.22L422.59-8.22Q423.81-6.78 426.50-6.78L426.50-6.78L426.50-6.78Q430.21-6.78 433.15-9.86L433.15-9.86L433.15-9.86Q433.98-10.82 434.43-11.90L434.43-11.90L434.43-11.90Q436.86-10.62 436.86-7.10L436.86-7.10L436.86-7.10Q436.86-3.52 432.90-1.15L432.90-1.15L432.90-1.15Q428.80 1.28 422.27 1.28L422.27 1.28L422.27 1.28Q409.28 1.28 409.28-12.48L409.28-12.48L409.28-12.48Q409.28-22.53 414.98-28.29L414.98-28.29L414.98-28.29Q420.48-33.92 430.59-33.92L430.59-33.92L430.59-33.92Q440.70-33.92 440.70-26.62ZM445.22-1.92L445.22-1.92L445.22-1.92Q443.71-3.58 443.04-6.21L443.04-6.21L443.04-6.21Q442.37-8.83 442.37-13.12L442.37-13.12L442.37-13.12Q442.37-17.41 443.84-21.31L443.84-21.31L443.84-21.31Q445.31-25.22 448.00-28.03L448.00-28.03L448.00-28.03Q453.50-33.92 462.59-33.92L462.59-33.92L462.59-33.92Q465.86-33.92 468.22-32.83L468.22-32.83L479.17-33.92L474.43-8.96L474.43-8.96Q474.24-8.19 474.24-6.78L474.24-6.78L474.24-6.78Q474.24-5.38 475.10-4.48L475.10-4.48L475.10-4.48Q475.97-3.58 477.25-3.46L477.25-3.46L477.25-3.46Q476.61-1.28 474.27 0L474.27 0L474.27 0Q471.94 1.28 469.31 1.28L469.31 1.28L469.31 1.28Q466.69 1.28 464.93 0.29L464.93 0.29L464.93 0.29Q463.17-0.70 462.66-2.37L462.66-2.37L462.66-2.37Q461.63-0.77 459.46 0.26L459.46 0.26L459.46 0.26Q457.28 1.28 454.37 1.28L454.37 1.28L454.37 1.28Q451.46 1.28 449.09 0.51L449.09 0.51L449.09 0.51Q446.72-0.26 445.22-1.92ZM458.72-27.90L458.72-27.90L458.72-27.90Q457.98-26.75 457.34-24.80L457.34-24.80L457.34-24.80Q456.70-22.85 455.65-17.63L455.65-17.63L455.65-17.63Q454.59-12.42 454.59-8.70L454.59-8.70L454.59-8.70Q454.59-4.99 455.17-3.90L455.17-3.90L455.17-3.90Q455.74-2.82 456.77-2.82L456.77-2.82L456.77-2.82Q458.82-2.82 460.32-4.77L460.32-4.77L460.32-4.77Q461.82-6.72 462.40-10.18L462.40-10.18L465.79-28.93L465.79-28.93Q464.45-30.08 462.88-30.08L462.88-30.08L462.88-30.08Q461.31-30.08 460.38-29.57L460.38-29.57L460.38-29.57Q459.46-29.06 458.72-27.90Z" fill="url(#editing-sticker-gradient)" stroke="#000" stroke-width="2.5"></path></g></g><style>text {
  font-size: 64px;
  font-family: Arial Black;
  dominant-baseline: central;
  text-anchor: middle;
}</style></svg>