<svg width="531.556" height="99.2" xmlns="http://www.w3.org/2000/svg" viewBox="-15.778 25.4 531.556 99.2" style="background:0 0" preserveAspectRatio="xMidYMid"><defs><linearGradient id="editing-sticker-gradient" x1=".5" y1=".2" x2=".5" y2=".8"><stop offset="0" stop-color="#fd9"/><stop offset="1" stop-color="#9df"/></linearGradient><filter id="editing-sticker" x="-100%" y="-100%" width="300%" height="300%"><feMorphology radius="1" in="SourceAlpha" result="alpha-erode"/><feConvolveMatrix order="3,3" divisor="1" kernelMatrix="0 1 0 1 1 1 0 1 0" in="alpha-erode" result="alpha-round"/><feMorphology operator="dilate" radius="3.5" in="alpha-round" result="dilate-shadow"/><feGaussianBlur in="dilate-shadow" stdDeviation="1.5" result="shadow"/><feFlood flood-color="#fff" result="flood-sticker"/><feComposite operator="in" in="flood-sticker" in2="alpha-round" result="comp-sticker"/><feMorphology operator="dilate" radius="3" in="comp-sticker" result="morph-sticker"/><feConvolveMatrix order="3,3" divisor="1" kernelMatrix="0 1 0 1 1 1 0 1 0" in="morph-sticker" result="sticker"/><feMerge><feMergeNode in="shadow"/><feMergeNode in="sticker"/><feMergeNode in="SourceGraphic"/></feMerge></filter></defs><g filter="url(#editing-sticker)"><path d="M19.5-3.75h0q0-3.5 1.4-10.5h0-7.4L10.75 0H.3l6.35-33H17.2l-2.9 14.75h7.4L24.45-33H35q-.7 3.7-1.6 7.85h0L31.7-17h0q-1.9 9.5-1.9 13.65h0q0 1.7.55 2.65h0Q27.85 1 24.93 1h0Q22 1 20.75-.4h0Q19.5-1.8 19.5-3.75zm28.7 1h0Q46.65 1 41.7 1h0q-2.55 0-4.15-1.75h0Q36.2-2.3 36.2-3.85h0q0-4.05 1.85-11.95h0l1.85-9.7 10.15-1L47-10.7h0q-.85 3.7-.85 5h0q0 2.85 2.05 2.95zm-7.4-29.7h0q0-1.95 1.63-3h0q1.62-1.05 3.97-1.05h0q2.35 0 3.78 1.05h0q1.42 1.05 1.42 3h0q0 1.95-1.57 2.95h0q-1.58 1-3.93 1h0q-2.35 0-3.82-1h0q-1.48-1-1.48-2.95zm26.6 14.9h0q.7-1.85.7-3.45h0q0-2.95-2.4-2.95h0q-1.25 0-2.27 1.12h0Q62.4-21.7 62.4-20.3h0q0 1 .8 1.8h0q1.15 1.1 4.1 2.9h0q2.95 1.8 4.08 3.27h0q1.12 1.48 1.12 3.5h0q0 2.03-.97 3.88h0Q70.55-3.1 68.8-1.8h0Q65.05 1 59.05 1h0Q55.8 1 53.3-.7h0q-2.5-1.65-2.5-3.6h0q0-1.95 1.43-3.1h0q1.42-1.15 3.52-1.15h0q2.1 0 3.4.8h0Q58.5-6.1 58.5-5h0q0 3.3 2.8 3.3h0q1.2 0 2-.75h0q.8-.75.8-2.05h0q0-2.55-4.3-5.25h0q-3.5-2.3-4.3-3.2h0q-1.35-1.6-1.35-3.6h0q0-2 .95-3.9h0q.95-1.9 2.7-3.25h0q3.65-2.8 10-2.8h0q3.25 0 5.17 1.3h0q1.93 1.3 1.93 3.5h0q0 2.2-1.32 3.45h0Q72.25-17 69.85-17h0q-1.65 0-2.45-.55zM77.55-5h0q0-1.35.7-4.75h0l2.65-13.5h-2.95l.2-1.5h0q6-1.8 11.8-6.2h2.4l-1.2 5.45h3.9l-.45 2.25h-3.85L88.2-9.75h0q-.65 3.1-.65 4.15h0q0 2.4 2.1 2.9h0q-.5 1.7-2.3 2.7h0Q85.55 1 83 1h0q-2.55 0-4-1.6h0Q77.55-2.2 77.55-5zm27.95 6h0q-11 0-11-10.35h0q0-7.35 4.05-12.1h0q4.3-5.05 11.75-5.05h0q5.4 0 8.15 2.5h0q2.75 2.5 2.75 7.75h0q0 8-4.3 12.65h0Q112.7 1 105.5 1zm1.3-21.75h0q-.6 1.35-1.08 3.37h0q-.47 2.03-1.07 5.23h0q-.6 3.2-.6 7.15h0q0 1.3.42 2.15h0q.43.85 1.58.85h0q1.15 0 1.87-.55h0q.73-.55 1.28-1.85h0q1-2.3 1.8-6.58h0q.8-4.27.88-6.12h0q.07-1.85.07-3.23h0q0-1.37-.4-2.27h0q-.4-.9-1.52-.9h0q-1.13 0-1.88.7h0q-.75.7-1.35 2.05zm33 6.7h0q1.8-3.2 1.8-6.45h0q0-2.15-1.55-2.15h0q-1.2 0-2.45 2.05h0q-1.3 2.05-1.7 4.7h0L133.3 0l-10.35 1 5.1-26.5 8.25-1-.9 5.05h0q2.45-5.05 7.95-5.05h0q2.9 0 4.47 1.5h0q1.58 1.5 1.58 4.57h0q0 3.08-2.02 5.03h0q-2.03 1.95-5.48 1.95h0q-1.5 0-2.1-.6zm22.4 11.3h0Q160.65 1 155.7 1h0q-2.55 0-4.15-1.75h0q-1.35-1.55-1.35-3.1h0q0-4.05 1.85-11.95h0l1.85-9.7 10.15-1L161-10.7h0q-.85 3.7-.85 5h0q0 2.85 2.05 2.95zm-7.4-29.7h0q0-1.95 1.62-3h0q1.63-1.05 3.98-1.05h0q2.35 0 3.77 1.05h0q1.43 1.05 1.43 3h0q0 1.95-1.57 2.95h0q-1.58 1-3.93 1h0q-2.35 0-3.82-1h0q-1.48-1-1.48-2.95zM168.63-1.5h0q-1.18-1.3-1.71-3.35h0q-.52-2.05-.52-5.4h0q0-3.35 1.15-6.4h0q1.15-3.05 3.25-5.25h0q4.3-4.6 11.4-4.6h0q2.55 0 4.4.85h0l8.55-.85-3.7 19.5h0q-.15.6-.15 1.7h0q0 1.1.67 1.8h0q.68.7 1.68.8h0q-.5 1.7-2.33 2.7h0q-1.82 1-3.87 1h0q-2.05 0-3.42-.77h0q-1.38-.78-1.78-2.08h0q-.8 1.25-2.5 2.05h0q-1.7.8-3.97.8h0q-2.28 0-4.13-.6h0q-1.85-.6-3.02-1.9zm10.54-20.3h0q-.57.9-1.07 2.42h0q-.5 1.53-1.32 5.6h0q-.83 4.08-.83 6.98h0q0 2.9.45 3.75h0q.45.85 1.25.85h0q1.6 0 2.77-1.53h0q1.18-1.52 1.63-4.22h0l2.65-14.65h0q-1.05-.9-2.28-.9h0q-1.22 0-1.95.4h0q-.72.4-1.3 1.3zm55.08 11.45h0q1.3.95 1.3 2.97h0q0 2.03-.87 3.45h0q-.88 1.43-2.58 2.53h0Q228.45.95 222.08.95h0q-6.38 0-9.85-3.33h0q-3.48-3.32-3.48-9.22h0q0-8.35 4.35-14.7h0q3.3-4.7 9.2-6.7h0q3.05-1 6.05-1h0q3 0 4.85.4h0q1.85.4 3.25 1.2h0q3.05 1.75 3.05 4.55h0q0 2.55-2.4 4.45h0q-2.2 1.7-4 1.7h0q-1.8 0-2.55-.25h0q.2-1.8.2-2.98h0q0-1.17-.05-2.02h0q-.05-.85-.3-1.65h0q-.5-1.85-2.02-1.85h0q-1.53 0-3.05 1.42h0q-1.53 1.43-2.83 3.83h0q-2.95 5.45-2.95 11.9h0q0 3.1 1.75 4.87h0q1.75 1.78 5.5 1.78h0q2.8 0 5.45-1.85h0q1.15-.8 2-1.85zm17.4 7.6h0Q250.1 1 245.15 1h0q-2.5 0-4.1-1.75h0q-1.3-1.45-1.3-3.1h0q0-3.75 1.75-11.95h0l3.65-19.2 10.15-1-4.85 25.3h0q-.85 3.7-.85 5h0q0 2.85 2.05 2.95zm16.25 0h0Q266.35 1 261.4 1h0q-2.55 0-4.15-1.75h0q-1.35-1.55-1.35-3.1h0q0-4.05 1.85-11.95h0l1.85-9.7 10.15-1-3.05 15.8h0q-.85 3.7-.85 5h0q0 2.85 2.05 2.95zm-7.4-29.7h0q0-1.95 1.63-3h0q1.62-1.05 3.97-1.05h0q2.35 0 3.78 1.05h0q1.42 1.05 1.42 3h0q0 1.95-1.57 2.95h0q-1.58 1-3.93 1h0q-2.35 0-3.82-1h0q-1.48-1-1.48-2.95zM293.3 1h0q-6.05 0-6.05-4.7h0q.05-1.3.45-3.5h0l.9-4.6h0q1.35-6.5 1.35-7.95h0q0-2.9-1.7-2.9h0q-2.85 0-4.35 7.45h0L280.95 0 270.9 1l5.2-26.55 8.2-.95-.8 4.9h0q2.35-4.9 9.55-4.9h0q3.5 0 4.98 1.47h0q1.47 1.48 1.47 4.78h0q0 3.1-1.6 10.35h0q-.75 3.25-.75 4.47h0q0 1.23.67 1.93h0q.68.7 1.68.8h0Q299-1 297.28 0h0q-1.73 1-3.98 1zm22.2-3.75h0Q313.95 1 309 1h0q-2.55 0-4.15-1.75h0q-1.35-1.55-1.35-3.1h0q0-4.05 1.85-11.95h0l1.85-9.7 10.15-1-3.05 15.8h0q-.85 3.7-.85 5h0q0 2.85 2.05 2.95zm-7.4-29.7h0q0-1.95 1.63-3h0q1.62-1.05 3.97-1.05h0q2.35 0 3.78 1.05h0q1.42 1.05 1.42 3h0q0 1.95-1.57 2.95h0q-1.58 1-3.93 1h0q-2.35 0-3.82-1h0q-1.48-1-1.48-2.95zm36.2 11.65h0q0 2.1-1.75 3.4h0q-1.75 1.3-4.6 1.3h0q-1.2 0-1.9-.35h0q.55-1.3.73-2.93h0q.17-1.62.17-2.07h0q0-2.1-1.45-2.1h0q-1 0-2.12 1.25h0q-1.13 1.25-2.08 3.2h0q-2.1 4.5-2.1 9.05h0q0 2.5.95 3.62h0q.95 1.13 3.05 1.13h0q2.9 0 5.2-2.4h0q.65-.75 1-1.6h0q1.9 1 1.9 3.75h0q0 2.8-3.1 4.65h0Q335 1 329.9 1h0q-10.15 0-10.15-10.75h0q0-7.85 4.45-12.35h0q4.3-4.4 12.2-4.4h0q7.9 0 7.9 5.7zm3.52 19.3h0q-1.17-1.3-1.69-3.35h0q-.53-2.05-.53-5.4h0q0-3.35 1.15-6.4h0q1.15-3.05 3.25-5.25h0q4.3-4.6 11.4-4.6h0q2.55 0 4.4.85h0l8.55-.85-3.7 19.5h0q-.15.6-.15 1.7h0q0 1.1.68 1.8h0q.67.7 1.67.8h0q-.5 1.7-2.32 2.7h0q-1.83 1-3.88 1h0q-2.05 0-3.42-.77h0q-1.38-.78-1.78-2.08h0q-.8 1.25-2.5 2.05h0q-1.7.8-3.97.8h0q-2.28 0-4.13-.6h0q-1.85-.6-3.03-1.9zm10.56-20.3h0q-.58.9-1.08 2.42h0q-.5 1.53-1.32 5.6h0q-.83 4.08-.83 6.98h0q0 2.9.45 3.75h0q.45.85 1.25.85h0q1.6 0 2.78-1.53h0q1.17-1.52 1.62-4.22h0l2.65-14.65h0q-1.05-.9-2.27-.9h0q-1.23 0-1.95.4h0q-.73.4-1.3 1.3z" fill="url(#editing-sticker-gradient)" stroke="#000" stroke-width="2" transform="translate(62.675 93.75)"/></g><style/></svg>