<svg width="531.5562866210937px" height="99.2px" xmlns="http://www.w3.org/2000/svg" viewBox="-15.778143310546852 25.4 531.5562866210937 99.2" style="background: rgba(0, 0, 0, 0);" preserveAspectRatio="xMidYMid"><defs><linearGradient id="editing-sticker-gradient" x1="0.5" y1="0.2" x2="0.5" y2="0.8"><stop offset="0" stop-color="#fd9"></stop><stop offset="1" stop-color="#9df"></stop></linearGradient><filter id="editing-sticker" x="-100%" y="-100%" width="300%" height="300%"><feMorphology operator="erode" radius="1" in="SourceAlpha" result="alpha-erode"></feMorphology><feConvolveMatrix order="3,3" divisor="1" kernelMatrix="0 1 0 1 1 1 0 1 0" in="alpha-erode" result="alpha-round"></feConvolveMatrix><feMorphology operator="dilate" radius="3.5" in="alpha-round" result="dilate-shadow"></feMorphology><feGaussianBlur in="dilate-shadow" stdDeviation="1.5" result="shadow"></feGaussianBlur><feFlood flood-color="#fff" result="flood-sticker"></feFlood><feComposite operator="in" in="flood-sticker" in2="alpha-round" result="comp-sticker"></feComposite><feMorphology operator="dilate" radius="3" in="comp-sticker" result="morph-sticker"></feMorphology><feConvolveMatrix order="3,3" divisor="1" kernelMatrix="0 1 0 1 1 1 0 1 0" in="morph-sticker" result="sticker"></feConvolveMatrix><feMerge><feMergeNode in="shadow"></feMergeNode><feMergeNode in="sticker"></feMergeNode><feMergeNode in="SourceGraphic"></feMergeNode></feMerge></filter></defs><g filter="url(#editing-sticker)"><g transform="translate(62.6749832034111, 93.75000190734863)"><path d="M19.50-3.75L19.50-3.75L19.50-3.75Q19.50-7.25 20.90-14.25L20.90-14.25L13.50-14.25L10.75 0L0.30 0L6.65-33L17.20-33L14.30-18.25L21.70-18.25L24.45-33L35-33L35-33Q34.30-29.30 33.40-25.15L33.40-25.15L31.70-17L31.70-17Q29.80-7.50 29.80-3.35L29.80-3.35L29.80-3.35Q29.80-1.65 30.35-0.70L30.35-0.70L30.35-0.70Q27.85 1 24.93 1L24.93 1L24.93 1Q22 1 20.75-0.40L20.75-0.40L20.75-0.40Q19.50-1.80 19.50-3.75ZM48.20-2.75L48.20-2.75L48.20-2.75Q46.65 1 41.70 1L41.70 1L41.70 1Q39.15 1 37.55-0.75L37.55-0.75L37.55-0.75Q36.20-2.30 36.20-3.85L36.20-3.85L36.20-3.85Q36.20-7.90 38.05-15.80L38.05-15.80L39.90-25.50L50.05-26.50L47-10.70L47-10.70Q46.15-7 46.15-5.70L46.15-5.70L46.15-5.70Q46.15-2.85 48.20-2.75ZM40.80-32.45L40.80-32.45L40.80-32.45Q40.80-34.40 42.43-35.45L42.43-35.45L42.43-35.45Q44.05-36.50 46.40-36.50L46.40-36.50L46.40-36.50Q48.75-36.50 50.18-35.45L50.18-35.45L50.18-35.45Q51.60-34.40 51.60-32.45L51.60-32.45L51.60-32.45Q51.60-30.50 50.03-29.50L50.03-29.50L50.03-29.50Q48.45-28.50 46.10-28.50L46.10-28.50L46.10-28.50Q43.75-28.50 42.28-29.50L42.28-29.50L42.28-29.50Q40.80-30.50 40.80-32.45ZM67.40-17.55L67.40-17.55L67.40-17.55Q68.10-19.40 68.10-21L68.10-21L68.10-21Q68.10-23.95 65.70-23.95L65.70-23.95L65.70-23.95Q64.45-23.95 63.43-22.83L63.43-22.83L63.43-22.83Q62.40-21.70 62.40-20.30L62.40-20.30L62.40-20.30Q62.40-19.30 63.20-18.50L63.20-18.50L63.20-18.50Q64.35-17.40 67.30-15.60L67.30-15.60L67.30-15.60Q70.25-13.80 71.38-12.33L71.38-12.33L71.38-12.33Q72.50-10.85 72.50-8.83L72.50-8.83L72.50-8.83Q72.50-6.80 71.53-4.95L71.53-4.95L71.53-4.95Q70.55-3.10 68.80-1.80L68.80-1.80L68.80-1.80Q65.05 1 59.05 1L59.05 1L59.05 1Q55.80 1 53.30-0.70L53.30-0.70L53.30-0.70Q50.80-2.35 50.80-4.30L50.80-4.30L50.80-4.30Q50.80-6.25 52.23-7.40L52.23-7.40L52.23-7.40Q53.65-8.55 55.75-8.55L55.75-8.55L55.75-8.55Q57.85-8.55 59.15-7.75L59.15-7.75L59.15-7.75Q58.50-6.10 58.50-5L58.50-5L58.50-5Q58.50-1.70 61.30-1.70L61.30-1.70L61.30-1.70Q62.50-1.70 63.30-2.45L63.30-2.45L63.30-2.45Q64.10-3.20 64.10-4.50L64.10-4.50L64.10-4.50Q64.10-7.05 59.80-9.75L59.80-9.75L59.80-9.75Q56.30-12.05 55.50-12.95L55.50-12.95L55.50-12.95Q54.15-14.55 54.15-16.55L54.15-16.55L54.15-16.55Q54.15-18.55 55.10-20.45L55.10-20.45L55.10-20.45Q56.05-22.35 57.80-23.70L57.80-23.70L57.80-23.70Q61.45-26.50 67.80-26.50L67.80-26.50L67.80-26.50Q71.05-26.50 72.97-25.20L72.97-25.20L72.97-25.20Q74.90-23.90 74.90-21.70L74.90-21.70L74.90-21.70Q74.90-19.50 73.58-18.25L73.58-18.25L73.58-18.25Q72.25-17 69.85-17L69.85-17L69.85-17Q68.20-17 67.40-17.55ZM77.55-5L77.55-5L77.55-5Q77.55-6.35 78.25-9.75L78.25-9.75L80.90-23.25L77.95-23.25L78.15-24.75L78.15-24.75Q84.15-26.55 89.95-30.95L89.95-30.95L92.35-30.95L91.15-25.50L95.05-25.50L94.60-23.25L90.75-23.25L88.20-9.75L88.20-9.75Q87.55-6.65 87.55-5.60L87.55-5.60L87.55-5.60Q87.55-3.20 89.65-2.70L89.65-2.70L89.65-2.70Q89.15-1 87.35 0L87.35 0L87.35 0Q85.55 1 83 1L83 1L83 1Q80.45 1 79-0.60L79-0.60L79-0.60Q77.55-2.20 77.55-5ZM105.50 1L105.50 1L105.50 1Q94.50 1 94.50-9.35L94.50-9.35L94.50-9.35Q94.50-16.70 98.55-21.45L98.55-21.45L98.55-21.45Q102.85-26.50 110.30-26.50L110.30-26.50L110.30-26.50Q115.70-26.50 118.45-24L118.45-24L118.45-24Q121.20-21.50 121.20-16.25L121.20-16.25L121.20-16.25Q121.20-8.25 116.90-3.60L116.90-3.60L116.90-3.60Q112.70 1 105.50 1ZM106.80-20.75L106.80-20.75L106.80-20.75Q106.20-19.40 105.72-17.38L105.72-17.38L105.72-17.38Q105.25-15.35 104.65-12.15L104.65-12.15L104.65-12.15Q104.05-8.95 104.05-5L104.05-5L104.05-5Q104.05-3.70 104.47-2.85L104.47-2.85L104.47-2.85Q104.90-2 106.05-2L106.05-2L106.05-2Q107.20-2 107.92-2.55L107.92-2.55L107.92-2.55Q108.65-3.10 109.20-4.40L109.20-4.40L109.20-4.40Q110.20-6.70 111-10.98L111-10.98L111-10.98Q111.80-15.25 111.88-17.10L111.88-17.10L111.88-17.10Q111.95-18.95 111.95-20.33L111.95-20.33L111.95-20.33Q111.95-21.70 111.55-22.60L111.55-22.60L111.55-22.60Q111.15-23.50 110.03-23.50L110.03-23.50L110.03-23.50Q108.90-23.50 108.15-22.80L108.15-22.80L108.15-22.80Q107.40-22.10 106.80-20.75ZM139.80-14.05L139.80-14.05L139.80-14.05Q141.60-17.25 141.60-20.50L141.60-20.50L141.60-20.50Q141.60-22.65 140.05-22.65L140.05-22.65L140.05-22.65Q138.85-22.65 137.60-20.60L137.60-20.60L137.60-20.60Q136.30-18.55 135.90-15.90L135.90-15.90L133.30 0L122.95 1L128.05-25.50L136.30-26.50L135.40-21.45L135.40-21.45Q137.85-26.50 143.35-26.50L143.35-26.50L143.35-26.50Q146.25-26.50 147.82-25L147.82-25L147.82-25Q149.40-23.50 149.40-20.43L149.40-20.43L149.40-20.43Q149.40-17.35 147.38-15.40L147.38-15.40L147.38-15.40Q145.35-13.45 141.90-13.45L141.90-13.45L141.90-13.45Q140.40-13.45 139.80-14.05ZM162.20-2.75L162.20-2.75L162.20-2.75Q160.65 1 155.70 1L155.70 1L155.70 1Q153.15 1 151.55-0.75L151.55-0.75L151.55-0.75Q150.20-2.30 150.20-3.85L150.20-3.85L150.20-3.85Q150.20-7.90 152.05-15.80L152.05-15.80L153.90-25.50L164.05-26.50L161-10.70L161-10.70Q160.15-7 160.15-5.70L160.15-5.70L160.15-5.70Q160.15-2.85 162.20-2.75ZM154.80-32.45L154.80-32.45L154.80-32.45Q154.80-34.40 156.42-35.45L156.42-35.45L156.42-35.45Q158.05-36.50 160.40-36.50L160.40-36.50L160.40-36.50Q162.75-36.50 164.17-35.45L164.17-35.45L164.17-35.45Q165.60-34.40 165.60-32.45L165.60-32.45L165.60-32.45Q165.60-30.50 164.03-29.50L164.03-29.50L164.03-29.50Q162.45-28.50 160.10-28.50L160.10-28.50L160.10-28.50Q157.75-28.50 156.28-29.50L156.28-29.50L156.28-29.50Q154.80-30.50 154.80-32.45ZM168.63-1.50L168.63-1.50L168.63-1.50Q167.45-2.80 166.92-4.85L166.92-4.85L166.92-4.85Q166.40-6.90 166.40-10.25L166.40-10.25L166.40-10.25Q166.40-13.60 167.55-16.65L167.55-16.65L167.55-16.65Q168.70-19.70 170.80-21.90L170.80-21.90L170.80-21.90Q175.10-26.50 182.20-26.50L182.20-26.50L182.20-26.50Q184.75-26.50 186.60-25.65L186.60-25.65L195.15-26.50L191.45-7L191.45-7Q191.30-6.40 191.30-5.30L191.30-5.30L191.30-5.30Q191.30-4.20 191.97-3.50L191.97-3.50L191.97-3.50Q192.65-2.80 193.65-2.70L193.65-2.70L193.65-2.70Q193.15-1 191.32 0L191.32 0L191.32 0Q189.50 1 187.45 1L187.45 1L187.45 1Q185.40 1 184.03 0.23L184.03 0.23L184.03 0.23Q182.65-0.55 182.25-1.85L182.25-1.85L182.25-1.85Q181.45-0.60 179.75 0.20L179.75 0.20L179.75 0.20Q178.05 1 175.78 1L175.78 1L175.78 1Q173.50 1 171.65 0.40L171.65 0.40L171.65 0.40Q169.80-0.20 168.63-1.50ZM179.17-21.80L179.17-21.80L179.17-21.80Q178.60-20.90 178.10-19.38L178.10-19.38L178.10-19.38Q177.60-17.85 176.78-13.78L176.78-13.78L176.78-13.78Q175.95-9.70 175.95-6.80L175.95-6.80L175.95-6.80Q175.95-3.90 176.40-3.05L176.40-3.05L176.40-3.05Q176.85-2.20 177.65-2.20L177.65-2.20L177.65-2.20Q179.25-2.20 180.42-3.73L180.42-3.73L180.42-3.73Q181.60-5.25 182.05-7.95L182.05-7.95L184.70-22.60L184.70-22.60Q183.65-23.50 182.42-23.50L182.42-23.50L182.42-23.50Q181.20-23.50 180.47-23.10L180.47-23.10L180.47-23.10Q179.75-22.70 179.17-21.80ZM234.25-10.35L234.25-10.35L234.25-10.35Q235.55-9.40 235.55-7.38L235.55-7.38L235.55-7.38Q235.55-5.35 234.68-3.93L234.68-3.93L234.68-3.93Q233.80-2.50 232.10-1.40L232.10-1.40L232.10-1.40Q228.45 0.95 222.08 0.95L222.08 0.95L222.08 0.95Q215.70 0.95 212.23-2.38L212.23-2.38L212.23-2.38Q208.75-5.70 208.75-11.60L208.75-11.60L208.75-11.60Q208.75-19.95 213.10-26.30L213.10-26.30L213.10-26.30Q216.40-31 222.30-33L222.30-33L222.30-33Q225.35-34 228.35-34L228.35-34L228.35-34Q231.35-34 233.20-33.60L233.20-33.60L233.20-33.60Q235.05-33.20 236.45-32.40L236.45-32.40L236.45-32.40Q239.50-30.65 239.50-27.85L239.50-27.85L239.50-27.85Q239.50-25.30 237.10-23.40L237.10-23.40L237.10-23.40Q234.90-21.70 233.10-21.70L233.10-21.70L233.10-21.70Q231.30-21.70 230.55-21.95L230.55-21.95L230.55-21.95Q230.75-23.75 230.75-24.93L230.75-24.93L230.75-24.93Q230.75-26.10 230.70-26.95L230.70-26.95L230.70-26.95Q230.65-27.80 230.40-28.60L230.40-28.60L230.40-28.60Q229.90-30.45 228.38-30.45L228.38-30.45L228.38-30.45Q226.85-30.45 225.33-29.03L225.33-29.03L225.33-29.03Q223.80-27.60 222.50-25.20L222.50-25.20L222.50-25.20Q219.55-19.75 219.55-13.30L219.55-13.30L219.55-13.30Q219.55-10.20 221.30-8.43L221.30-8.43L221.30-8.43Q223.05-6.65 226.80-6.65L226.80-6.65L226.80-6.65Q229.60-6.65 232.25-8.50L232.25-8.50L232.25-8.50Q233.40-9.30 234.25-10.35ZM251.65-2.75L251.65-2.75L251.65-2.75Q250.10 1 245.15 1L245.15 1L245.15 1Q242.65 1 241.05-0.75L241.05-0.75L241.05-0.75Q239.75-2.20 239.75-3.85L239.75-3.85L239.75-3.85Q239.75-7.60 241.50-15.80L241.50-15.80L245.15-35L255.30-36L250.45-10.70L250.45-10.70Q249.60-7 249.60-5.70L249.60-5.70L249.60-5.70Q249.60-2.85 251.65-2.75ZM267.90-2.75L267.90-2.75L267.90-2.75Q266.35 1 261.40 1L261.40 1L261.40 1Q258.85 1 257.25-0.75L257.25-0.75L257.25-0.75Q255.90-2.30 255.90-3.85L255.90-3.85L255.90-3.85Q255.90-7.90 257.75-15.80L257.75-15.80L259.60-25.50L269.75-26.50L266.70-10.70L266.70-10.70Q265.85-7 265.85-5.70L265.85-5.70L265.85-5.70Q265.85-2.85 267.90-2.75ZM260.50-32.45L260.50-32.45L260.50-32.45Q260.50-34.40 262.13-35.45L262.13-35.45L262.13-35.45Q263.75-36.50 266.10-36.50L266.10-36.50L266.10-36.50Q268.45-36.50 269.88-35.45L269.88-35.45L269.88-35.45Q271.30-34.40 271.30-32.45L271.30-32.45L271.30-32.45Q271.30-30.50 269.73-29.50L269.73-29.50L269.73-29.50Q268.15-28.50 265.80-28.50L265.80-28.50L265.80-28.50Q263.45-28.50 261.98-29.50L261.98-29.50L261.98-29.50Q260.50-30.50 260.50-32.45ZM293.30 1L293.30 1L293.30 1Q287.25 1 287.25-3.70L287.25-3.70L287.25-3.70Q287.30-5 287.70-7.20L287.70-7.20L288.60-11.80L288.60-11.80Q289.95-18.30 289.95-19.75L289.95-19.75L289.95-19.75Q289.95-22.65 288.25-22.65L288.25-22.65L288.25-22.65Q285.40-22.65 283.90-15.20L283.90-15.20L280.95 0L270.90 1L276.10-25.55L284.30-26.50L283.50-21.60L283.50-21.60Q285.85-26.50 293.05-26.50L293.05-26.50L293.05-26.50Q296.55-26.50 298.03-25.03L298.03-25.03L298.03-25.03Q299.50-23.55 299.50-20.25L299.50-20.25L299.50-20.25Q299.50-17.15 297.90-9.90L297.90-9.90L297.90-9.90Q297.15-6.65 297.15-5.43L297.15-5.43L297.15-5.43Q297.15-4.20 297.82-3.50L297.82-3.50L297.82-3.50Q298.50-2.80 299.50-2.70L299.50-2.70L299.50-2.70Q299-1 297.28 0L297.28 0L297.28 0Q295.55 1 293.30 1ZM315.50-2.75L315.50-2.75L315.50-2.75Q313.95 1 309.00 1L309.00 1L309.00 1Q306.45 1 304.85-0.75L304.85-0.75L304.85-0.75Q303.50-2.30 303.50-3.85L303.50-3.85L303.50-3.85Q303.50-7.90 305.35-15.80L305.35-15.80L307.20-25.50L317.35-26.50L314.30-10.70L314.30-10.70Q313.45-7 313.45-5.70L313.45-5.70L313.45-5.70Q313.45-2.85 315.50-2.75ZM308.10-32.45L308.10-32.45L308.10-32.45Q308.10-34.40 309.73-35.45L309.73-35.45L309.73-35.45Q311.35-36.50 313.70-36.50L313.70-36.50L313.70-36.50Q316.05-36.50 317.48-35.45L317.48-35.45L317.48-35.45Q318.90-34.40 318.90-32.45L318.90-32.45L318.90-32.45Q318.90-30.50 317.33-29.50L317.33-29.50L317.33-29.50Q315.75-28.50 313.40-28.50L313.40-28.50L313.40-28.50Q311.05-28.50 309.58-29.50L309.58-29.50L309.58-29.50Q308.10-30.50 308.10-32.45ZM344.30-20.80L344.30-20.80L344.30-20.80Q344.30-18.70 342.55-17.40L342.55-17.40L342.55-17.40Q340.80-16.10 337.95-16.10L337.95-16.10L337.95-16.10Q336.75-16.10 336.05-16.45L336.05-16.45L336.05-16.45Q336.60-17.75 336.78-19.38L336.78-19.38L336.78-19.38Q336.95-21 336.95-21.45L336.95-21.45L336.95-21.45Q336.95-23.55 335.50-23.55L335.50-23.55L335.50-23.55Q334.50-23.55 333.38-22.30L333.38-22.30L333.38-22.30Q332.25-21.05 331.30-19.10L331.30-19.10L331.30-19.10Q329.20-14.60 329.20-10.05L329.20-10.05L329.20-10.05Q329.20-7.55 330.15-6.43L330.15-6.43L330.15-6.43Q331.10-5.30 333.20-5.30L333.20-5.30L333.20-5.30Q336.10-5.30 338.40-7.70L338.40-7.70L338.40-7.70Q339.05-8.45 339.40-9.30L339.40-9.30L339.40-9.30Q341.30-8.30 341.30-5.55L341.30-5.55L341.30-5.55Q341.30-2.75 338.20-0.90L338.20-0.90L338.20-0.90Q335.00 1 329.90 1L329.90 1L329.90 1Q319.75 1 319.75-9.75L319.75-9.75L319.75-9.75Q319.75-17.60 324.20-22.10L324.20-22.10L324.20-22.10Q328.50-26.50 336.40-26.50L336.40-26.50L336.40-26.50Q344.30-26.50 344.30-20.80ZM347.82-1.50L347.82-1.50L347.82-1.50Q346.65-2.80 346.13-4.85L346.13-4.85L346.13-4.85Q345.60-6.90 345.60-10.25L345.60-10.25L345.60-10.25Q345.60-13.60 346.75-16.65L346.75-16.65L346.75-16.65Q347.90-19.70 350-21.90L350-21.90L350-21.90Q354.30-26.50 361.40-26.50L361.40-26.50L361.40-26.50Q363.95-26.50 365.80-25.65L365.80-25.65L374.35-26.50L370.65-7L370.65-7Q370.50-6.40 370.50-5.30L370.50-5.30L370.50-5.30Q370.50-4.20 371.18-3.50L371.18-3.50L371.18-3.50Q371.85-2.80 372.85-2.70L372.85-2.70L372.85-2.70Q372.35-1 370.53 0L370.53 0L370.53 0Q368.70 1 366.65 1L366.65 1L366.65 1Q364.60 1 363.23 0.23L363.23 0.23L363.23 0.23Q361.85-0.55 361.45-1.85L361.45-1.85L361.45-1.85Q360.65-0.60 358.95 0.20L358.95 0.20L358.95 0.20Q357.25 1 354.98 1L354.98 1L354.98 1Q352.70 1 350.85 0.40L350.85 0.40L350.85 0.40Q349-0.20 347.82-1.50ZM358.38-21.80L358.38-21.80L358.38-21.80Q357.80-20.90 357.30-19.38L357.30-19.38L357.30-19.38Q356.80-17.85 355.98-13.78L355.98-13.78L355.98-13.78Q355.15-9.70 355.15-6.80L355.15-6.80L355.15-6.80Q355.15-3.90 355.60-3.05L355.60-3.05L355.60-3.05Q356.05-2.20 356.85-2.20L356.85-2.20L356.85-2.20Q358.45-2.20 359.63-3.73L359.63-3.73L359.63-3.73Q360.80-5.25 361.25-7.95L361.25-7.95L363.90-22.60L363.90-22.60Q362.85-23.50 361.63-23.50L361.63-23.50L361.63-23.50Q360.40-23.50 359.68-23.10L359.68-23.10L359.68-23.10Q358.95-22.70 358.38-21.80Z" fill="url(#editing-sticker-gradient)" stroke="#000000" stroke-width="2"></path></g></g><style>text {
  font-size: 64px;
  font-family: Arial Black;
  dominant-baseline: central;
  text-anchor: middle;
}</style></svg>